<?xml version="1.0" encoding="utf-8"?>
<!-- Generator: Adobe Illustrator 16.0.0, SVG Export Plug-In . SVG Version: 6.00 Build 0)  -->
<!DOCTYPE svg PUBLIC "-//W3C//DTD SVG 1.1//EN" "http://www.w3.org/Graphics/SVG/1.1/DTD/svg11.dtd">
<svg version="1.1" id="Layer_1" xmlns="http://www.w3.org/2000/svg" xmlns:xlink="http://www.w3.org/1999/xlink" x="0px" y="0px"
	 width="1084px" height="236px" viewBox="0 0 1084 236" enable-background="new 0 0 1084 236" xml:space="preserve">
<g>
	<g>
		<path fill="none" stroke="#BCBCBB" stroke-width="2" stroke-linecap="round" stroke-linejoin="round" stroke-miterlimit="10" d="
			M672,185.299c0,5.5-4.5,10-10,10H419.762c-5.5,0-10-4.5-10-10V15.94c0-5.5,4.5-10,10-10H662c5.5,0,10,4.5,10,10V185.299z"/>
	</g>
	
		<line fill="none" stroke="#BCBCBB" stroke-width="2" stroke-linecap="round" stroke-linejoin="round" stroke-miterlimit="10" x1="409.762" y1="158.208" x2="672" y2="158.208"/>
	<path fill="none" stroke="#BCBCBB" stroke-width="2" stroke-linecap="round" stroke-linejoin="round" stroke-miterlimit="10" d="
		M499.886,230.802c0,0,20.399-6.966,20.498-35.503h40.995c0.201,28.218,20.498,35.503,20.498,35.503H499.886z"/>
	
		<circle fill="none" stroke="#BCBCBB" stroke-width="2" stroke-linecap="round" stroke-linejoin="round" stroke-miterlimit="10" cx="540.881" cy="173.004" r="7.605"/>
	<g>
		<path fill="none" stroke="#BCBCBB" stroke-width="2" stroke-linecap="round" stroke-linejoin="round" stroke-miterlimit="10" d="
			M663.205,144.764c0,2.75-2.25,5-5,5H423.559c-2.75,0-5-2.25-5-5V19.976c0-2.75,2.25-5,5-5h234.646c2.75,0,5,2.25,5,5V144.764z"/>
	</g>
	
		<line fill="none" stroke="#BCBCBB" stroke-width="2" stroke-linecap="round" stroke-linejoin="round" stroke-miterlimit="10" x1="617.453" y1="14.976" x2="586.947" y2="52.159"/>
	
		<line fill="none" stroke="#BCBCBB" stroke-width="2" stroke-linecap="round" stroke-linejoin="round" stroke-miterlimit="10" x1="626.326" y1="14.976" x2="609.848" y2="35.68"/>
	
		<rect x="594.637" y="55.539" fill="none" stroke="#BCBCBB" stroke-width="2" stroke-linecap="round" stroke-linejoin="round" stroke-miterlimit="10" width="49.857" height="70.985"/>
	
		<line fill="none" stroke="#BCBCBB" stroke-width="2" stroke-linecap="round" stroke-linejoin="round" stroke-miterlimit="10" x1="644.494" y1="65.68" x2="594.637" y2="65.68"/>
	
		<line fill="none" stroke="#BCBCBB" stroke-width="2" stroke-linecap="round" stroke-linejoin="round" stroke-miterlimit="10" x1="612.383" y1="74.342" x2="599.707" y2="74.342"/>
	
		<line fill="none" stroke="#BCBCBB" stroke-width="2" stroke-linecap="round" stroke-linejoin="round" stroke-miterlimit="10" x1="612.383" y1="78.989" x2="599.707" y2="78.989"/>
	
		<line fill="none" stroke="#BCBCBB" stroke-width="2" stroke-linecap="round" stroke-linejoin="round" stroke-miterlimit="10" x1="612.383" y1="83.638" x2="599.707" y2="83.638"/>
	
		<line fill="none" stroke="#BCBCBB" stroke-width="2" stroke-linecap="round" stroke-linejoin="round" stroke-miterlimit="10" x1="612.383" y1="88.285" x2="599.707" y2="88.285"/>
	
		<line fill="none" stroke="#BCBCBB" stroke-width="2" stroke-linecap="round" stroke-linejoin="round" stroke-miterlimit="10" x1="632.664" y1="100.619" x2="619.988" y2="100.619"/>
	
		<line fill="none" stroke="#BCBCBB" stroke-width="2" stroke-linecap="round" stroke-linejoin="round" stroke-miterlimit="10" x1="632.664" y1="105.268" x2="619.988" y2="105.268"/>
	
		<line fill="none" stroke="#BCBCBB" stroke-width="2" stroke-linecap="round" stroke-linejoin="round" stroke-miterlimit="10" x1="632.664" y1="109.915" x2="619.988" y2="109.915"/>
	<g>
		<path fill="none" stroke="#BCBCBB" stroke-width="2" stroke-linecap="round" stroke-linejoin="round" stroke-miterlimit="10" d="
			M615.668,107.484c0,4.783-3.879,8.662-8.664,8.662s-8.662-3.879-8.662-8.662c0-4.786,3.877-8.664,8.662-8.664v8.664H615.668z"/>
		<path fill="none" stroke="#BCBCBB" stroke-width="2" stroke-linecap="round" stroke-linejoin="round" stroke-miterlimit="10" d="
			M609.443,96.368c4.785,0,8.664,3.878,8.664,8.664h-8.664V96.368z"/>
	</g>
	
		<line fill="none" stroke="#BCBCBB" stroke-width="2" stroke-linecap="round" stroke-linejoin="round" stroke-miterlimit="10" x1="618.107" y1="74.342" x2="618.107" y2="91.031"/>
	
		<line fill="none" stroke="#BCBCBB" stroke-width="2" stroke-linecap="round" stroke-linejoin="round" stroke-miterlimit="10" x1="618.107" y1="91.031" x2="636.467" y2="91.031"/>
	
		<line fill="none" stroke="#BCBCBB" stroke-width="2" stroke-linecap="round" stroke-linejoin="round" stroke-miterlimit="10" x1="623.367" y1="91.031" x2="623.367" y2="78.989"/>
	
		<line fill="none" stroke="#BCBCBB" stroke-width="2" stroke-linecap="round" stroke-linejoin="round" stroke-miterlimit="10" x1="628.016" y1="91.031" x2="628.016" y2="82.687"/>
	
		<line fill="none" stroke="#BCBCBB" stroke-width="2" stroke-linecap="round" stroke-linejoin="round" stroke-miterlimit="10" x1="632.664" y1="91.031" x2="632.664" y2="78.989"/>
	
		<rect x="429.425" y="33.567" fill="none" stroke="#BCBCBB" stroke-width="2" stroke-linecap="round" stroke-linejoin="round" stroke-miterlimit="10" width="141.548" height="92.957"/>
	
		<rect x="445.904" y="59.342" fill="none" stroke="#BCBCBB" stroke-width="2" stroke-linecap="round" stroke-linejoin="round" stroke-miterlimit="10" width="65.069" height="50.573"/>
	
		<circle fill="none" stroke="#BCBCBB" stroke-width="2" stroke-linecap="round" stroke-linejoin="round" stroke-miterlimit="10" cx="501.889" cy="69.482" r="4.859"/>
	
		<line fill="none" stroke="#BCBCBB" stroke-width="2" stroke-linecap="round" stroke-linejoin="round" stroke-miterlimit="10" x1="554.494" y1="62.3" x2="520.27" y2="62.3"/>
	
		<line fill="none" stroke="#BCBCBB" stroke-width="2" stroke-linecap="round" stroke-linejoin="round" stroke-miterlimit="10" x1="554.494" y1="71.046" x2="520.27" y2="71.046"/>
	
		<line fill="none" stroke="#BCBCBB" stroke-width="2" stroke-linecap="round" stroke-linejoin="round" stroke-miterlimit="10" x1="554.494" y1="79.793" x2="520.27" y2="79.793"/>
	
		<line fill="none" stroke="#BCBCBB" stroke-width="2" stroke-linecap="round" stroke-linejoin="round" stroke-miterlimit="10" x1="554.494" y1="88.54" x2="520.27" y2="88.54"/>
	
		<line fill="none" stroke="#BCBCBB" stroke-width="2" stroke-linecap="round" stroke-linejoin="round" stroke-miterlimit="10" x1="554.494" y1="97.286" x2="520.27" y2="97.286"/>
	
		<line fill="none" stroke="#BCBCBB" stroke-width="2" stroke-linecap="round" stroke-linejoin="round" stroke-miterlimit="10" x1="554.494" y1="106.032" x2="520.27" y2="106.032"/>
	<path fill="none" stroke="#BCBCBB" stroke-width="2" stroke-linecap="round" stroke-linejoin="round" stroke-miterlimit="10" d="
		M640.691,62.207c0,0.569-0.461,1.032-1.031,1.032h-3.1c-0.57,0-1.033-0.463-1.033-1.032v-3.1c0-0.569,0.463-1.032,1.033-1.032h3.1
		c0.57,0,1.031,0.463,1.031,1.032V62.207z"/>
	<path fill="none" stroke="#BCBCBB" stroke-width="2" stroke-linecap="round" stroke-linejoin="round" stroke-miterlimit="10" d="
		M601.615,62.207c0,0.569-0.463,1.032-1.033,1.032h-3.098c-0.572,0-1.033-0.463-1.033-1.032v-3.1c0-0.569,0.461-1.032,1.033-1.032
		h3.098c0.57,0,1.033,0.463,1.033,1.032V62.207z"/>
	<path fill="none" stroke="#BCBCBB" stroke-width="2" stroke-linecap="round" stroke-linejoin="round" stroke-miterlimit="10" d="
		M608.289,62.207c0,0.569-0.461,1.032-1.031,1.032h-3.1c-0.57,0-1.033-0.463-1.033-1.032v-3.1c0-0.569,0.463-1.032,1.033-1.032h3.1
		c0.57,0,1.031,0.463,1.031,1.032V62.207z"/>
	<path fill="none" stroke="#BCBCBB" stroke-width="2" stroke-linecap="round" stroke-linejoin="round" stroke-miterlimit="10" d="
		M614.965,62.207c0,0.569-0.463,1.032-1.033,1.032h-3.098c-0.572,0-1.033-0.463-1.033-1.032v-3.1c0-0.569,0.461-1.032,1.033-1.032
		h3.098c0.57,0,1.033,0.463,1.033,1.032V62.207z"/>
	
		<line fill="none" stroke="#BCBCBB" stroke-width="2" stroke-linecap="round" stroke-linejoin="round" stroke-miterlimit="10" x1="570.973" y1="43.708" x2="429.425" y2="43.708"/>
	<path fill="none" stroke="#BCBCBB" stroke-width="2" stroke-linecap="round" stroke-linejoin="round" stroke-miterlimit="10" d="
		M567.172,40.235c0,0.57-0.463,1.033-1.033,1.033h-3.1c-0.57,0-1.033-0.463-1.033-1.033v-3.099c0-0.569,0.463-1.032,1.033-1.032h3.1
		c0.57,0,1.033,0.463,1.033,1.032V40.235z"/>
	<path fill="none" stroke="#BCBCBB" stroke-width="2" stroke-linecap="round" stroke-linejoin="round" stroke-miterlimit="10" d="
		M437.75,40.235c0,0.57-0.462,1.033-1.033,1.033h-3.098c-0.57,0-1.033-0.463-1.033-1.033v-3.099c0-0.569,0.463-1.032,1.033-1.032
		h3.098c0.571,0,1.033,0.463,1.033,1.032V40.235z"/>
	<path fill="none" stroke="#BCBCBB" stroke-width="2" stroke-linecap="round" stroke-linejoin="round" stroke-miterlimit="10" d="
		M444.425,40.235c0,0.57-0.462,1.033-1.032,1.033h-3.1c-0.57,0-1.032-0.463-1.032-1.033v-3.099c0-0.569,0.462-1.032,1.032-1.032h3.1
		c0.57,0,1.032,0.463,1.032,1.032V40.235z"/>
	<path fill="none" stroke="#BCBCBB" stroke-width="2" stroke-linecap="round" stroke-linejoin="round" stroke-miterlimit="10" d="
		M451.1,40.235c0,0.57-0.463,1.033-1.033,1.033h-3.098c-0.571,0-1.033-0.463-1.033-1.033v-3.099c0-0.569,0.462-1.032,1.033-1.032
		h3.098c0.57,0,1.033,0.463,1.033,1.032V40.235z"/>
	
		<line fill="none" stroke="#BCBCBB" stroke-width="2" stroke-linecap="round" stroke-linejoin="round" stroke-miterlimit="10" x1="445.936" y1="51.103" x2="554.494" y2="51.103"/>
</g>
<g>
	
		<rect x="747.325" y="223.906" fill="none" stroke="#BCBCBB" stroke-width="2" stroke-linecap="round" stroke-linejoin="round" stroke-miterlimit="10" width="63.313" height="3.998"/>
	
		<rect x="762.986" y="217.576" fill="none" stroke="#BCBCBB" stroke-width="2" stroke-linecap="round" stroke-linejoin="round" stroke-miterlimit="10" width="31.99" height="6.33"/>
	
		<rect x="770.317" y="71.622" fill="none" stroke="#BCBCBB" stroke-width="2" stroke-linecap="round" stroke-linejoin="round" stroke-miterlimit="10" width="17.328" height="145.954"/>
	
		<rect x="770.317" y="71.622" fill="none" stroke="#BCBCBB" stroke-width="2" stroke-linecap="round" stroke-linejoin="round" stroke-miterlimit="10" width="17.328" height="17.327"/>
	
		<rect x="770.317" y="88.949" fill="none" stroke="#BCBCBB" stroke-width="2" stroke-linecap="round" stroke-linejoin="round" stroke-miterlimit="10" width="17.328" height="17.328"/>
	
		<rect x="770.317" y="106.277" fill="none" stroke="#BCBCBB" stroke-width="2" stroke-linecap="round" stroke-linejoin="round" stroke-miterlimit="10" width="17.328" height="17.327"/>
	
		<rect x="770.317" y="123.604" fill="none" stroke="#BCBCBB" stroke-width="2" stroke-linecap="round" stroke-linejoin="round" stroke-miterlimit="10" width="17.328" height="17.327"/>
	
		<rect x="770.317" y="140.932" fill="none" stroke="#BCBCBB" stroke-width="2" stroke-linecap="round" stroke-linejoin="round" stroke-miterlimit="10" width="17.328" height="17.328"/>
	
		<rect x="770.317" y="158.26" fill="none" stroke="#BCBCBB" stroke-width="2" stroke-linecap="round" stroke-linejoin="round" stroke-miterlimit="10" width="17.328" height="17.328"/>
	
		<rect x="770.317" y="175.588" fill="none" stroke="#BCBCBB" stroke-width="2" stroke-linecap="round" stroke-linejoin="round" stroke-miterlimit="10" width="17.328" height="17.326"/>
	
		<rect x="770.317" y="192.914" fill="none" stroke="#BCBCBB" stroke-width="2" stroke-linecap="round" stroke-linejoin="round" stroke-miterlimit="10" width="17.328" height="17.328"/>
	
		<rect x="735.911" y="106.277" fill="none" stroke="#BCBCBB" stroke-width="2" stroke-linecap="round" stroke-linejoin="round" stroke-miterlimit="10" width="155.947" height="17.327"/>
	
		<rect x="735.911" y="106.277" fill="none" stroke="#BCBCBB" stroke-width="2" stroke-linecap="round" stroke-linejoin="round" stroke-miterlimit="10" width="17.327" height="17.327"/>
	
		<rect x="753.238" y="106.277" fill="none" stroke="#BCBCBB" stroke-width="2" stroke-linecap="round" stroke-linejoin="round" stroke-miterlimit="10" width="17.327" height="17.327"/>
	
		<rect x="770.565" y="106.277" fill="none" stroke="#BCBCBB" stroke-width="2" stroke-linecap="round" stroke-linejoin="round" stroke-miterlimit="10" width="17.328" height="17.327"/>
	
		<rect x="787.894" y="106.277" fill="none" stroke="#BCBCBB" stroke-width="2" stroke-linecap="round" stroke-linejoin="round" stroke-miterlimit="10" width="17.327" height="17.327"/>
	
		<rect x="805.221" y="106.277" fill="none" stroke="#BCBCBB" stroke-width="2" stroke-linecap="round" stroke-linejoin="round" stroke-miterlimit="10" width="17.327" height="17.327"/>
	
		<rect x="822.548" y="106.277" fill="none" stroke="#BCBCBB" stroke-width="2" stroke-linecap="round" stroke-linejoin="round" stroke-miterlimit="10" width="17.328" height="17.327"/>
	
		<rect x="839.876" y="106.277" fill="none" stroke="#BCBCBB" stroke-width="2" stroke-linecap="round" stroke-linejoin="round" stroke-miterlimit="10" width="17.328" height="17.327"/>
	
		<rect x="857.204" y="106.277" fill="none" stroke="#BCBCBB" stroke-width="2" stroke-linecap="round" stroke-linejoin="round" stroke-miterlimit="10" width="17.327" height="17.327"/>
	
		<rect x="874.531" y="106.277" fill="none" stroke="#BCBCBB" stroke-width="2" stroke-linecap="round" stroke-linejoin="round" stroke-miterlimit="10" width="17.327" height="17.327"/>
	
		<line fill="none" stroke="#BCBCBB" stroke-width="2" stroke-linecap="round" stroke-linejoin="round" stroke-miterlimit="10" x1="787.646" y1="106.277" x2="770.441" y2="123.48"/>
	
		<line fill="none" stroke="#BCBCBB" stroke-width="2" stroke-linecap="round" stroke-linejoin="round" stroke-miterlimit="10" x1="770.317" y1="106.277" x2="753.114" y2="123.48"/>
	
		<line fill="none" stroke="#BCBCBB" stroke-width="2" stroke-linecap="round" stroke-linejoin="round" stroke-miterlimit="10" x1="753.238" y1="106.277" x2="735.911" y2="123.604"/>
	
		<line fill="none" stroke="#BCBCBB" stroke-width="2" stroke-linecap="round" stroke-linejoin="round" stroke-miterlimit="10" x1="805.221" y1="106.277" x2="787.894" y2="123.604"/>
	
		<line fill="none" stroke="#BCBCBB" stroke-width="2" stroke-linecap="round" stroke-linejoin="round" stroke-miterlimit="10" x1="822.548" y1="106.277" x2="805.221" y2="123.604"/>
	
		<line fill="none" stroke="#BCBCBB" stroke-width="2" stroke-linecap="round" stroke-linejoin="round" stroke-miterlimit="10" x1="839.876" y1="106.277" x2="822.548" y2="123.604"/>
	
		<line fill="none" stroke="#BCBCBB" stroke-width="2" stroke-linecap="round" stroke-linejoin="round" stroke-miterlimit="10" x1="857.204" y1="106.277" x2="839.876" y2="123.604"/>
	
		<line fill="none" stroke="#BCBCBB" stroke-width="2" stroke-linecap="round" stroke-linejoin="round" stroke-miterlimit="10" x1="874.531" y1="106.277" x2="857.204" y2="123.604"/>
	
		<line fill="none" stroke="#BCBCBB" stroke-width="2" stroke-linecap="round" stroke-linejoin="round" stroke-miterlimit="10" x1="891.858" y1="106.277" x2="874.531" y2="123.604"/>
	
		<line fill="none" stroke="#BCBCBB" stroke-width="2" stroke-linecap="round" stroke-linejoin="round" stroke-miterlimit="10" x1="787.646" y1="71.622" x2="770.317" y2="88.949"/>
	
		<line fill="none" stroke="#BCBCBB" stroke-width="2" stroke-linecap="round" stroke-linejoin="round" stroke-miterlimit="10" x1="787.646" y1="88.949" x2="770.317" y2="106.277"/>
	
		<line fill="none" stroke="#BCBCBB" stroke-width="2" stroke-linecap="round" stroke-linejoin="round" stroke-miterlimit="10" x1="787.894" y1="123.604" x2="770.317" y2="140.932"/>
	
		<line fill="none" stroke="#BCBCBB" stroke-width="2" stroke-linecap="round" stroke-linejoin="round" stroke-miterlimit="10" x1="787.646" y1="140.932" x2="770.317" y2="158.26"/>
	
		<line fill="none" stroke="#BCBCBB" stroke-width="2" stroke-linecap="round" stroke-linejoin="round" stroke-miterlimit="10" x1="787.646" y1="158.26" x2="770.317" y2="175.588"/>
	
		<line fill="none" stroke="#BCBCBB" stroke-width="2" stroke-linecap="round" stroke-linejoin="round" stroke-miterlimit="10" x1="787.646" y1="175.588" x2="770.317" y2="192.914"/>
	
		<line fill="none" stroke="#BCBCBB" stroke-width="2" stroke-linecap="round" stroke-linejoin="round" stroke-miterlimit="10" x1="787.646" y1="192.914" x2="770.317" y2="210.242"/>
	
		<line fill="none" stroke="#BCBCBB" stroke-width="2" stroke-linecap="round" stroke-linejoin="round" stroke-miterlimit="10" x1="787.646" y1="210.242" x2="780.312" y2="217.576"/>
	
		<line fill="none" stroke="#BCBCBB" stroke-width="2" stroke-linecap="round" stroke-linejoin="round" stroke-miterlimit="10" x1="770.317" y1="71.622" x2="735.911" y2="106.277"/>
	
		<line fill="none" stroke="#BCBCBB" stroke-width="2" stroke-linecap="round" stroke-linejoin="round" stroke-miterlimit="10" x1="787.646" y1="71.622" x2="874.531" y2="106.277"/>
	
		<rect x="860.577" y="154.008" fill="none" stroke="#BCBCBB" stroke-width="2" stroke-linecap="round" stroke-linejoin="round" stroke-miterlimit="10" width="27.907" height="5.98"/>
	
		<circle fill="none" stroke="#BCBCBB" stroke-width="2" stroke-linecap="round" stroke-linejoin="round" stroke-miterlimit="10" cx="874.531" cy="139.355" r="3.292"/>
	
		<line fill="none" stroke="#BCBCBB" stroke-width="2" stroke-linecap="round" stroke-linejoin="round" stroke-miterlimit="10" x1="860.577" y1="154.008" x2="871.239" y2="139.355"/>
	
		<line fill="none" stroke="#BCBCBB" stroke-width="2" stroke-linecap="round" stroke-linejoin="round" stroke-miterlimit="10" x1="888.26" y1="154.008" x2="877.823" y2="139.355"/>
	
		<line fill="none" stroke="#BCBCBB" stroke-width="2" stroke-linecap="round" stroke-linejoin="round" stroke-miterlimit="10" x1="874.531" y1="119.94" x2="874.531" y2="136.062"/>
	
		<rect x="729.372" y="203.541" fill="none" stroke="#BCBCBB" stroke-width="2" stroke-linecap="round" stroke-linejoin="round" stroke-miterlimit="10" width="12.998" height="17.432"/>
	
		<polygon fill="none" stroke="#BCBCBB" stroke-width="2" stroke-linecap="round" stroke-linejoin="round" stroke-miterlimit="10" points="
		735.909,197.586 742.447,203.541 729.372,203.541 	"/>
	
		<line fill="none" stroke="#BCBCBB" stroke-width="2" stroke-linecap="round" stroke-linejoin="round" stroke-miterlimit="10" x1="735.909" y1="197.586" x2="735.909" y2="120.174"/>
</g>
<g>
	<path fill="none" stroke="#BCBCBB" stroke-width="2" stroke-linecap="round" stroke-linejoin="round" stroke-miterlimit="10" d="
		M154.75,212.428c4.288,0,7.764,3.476,7.764,7.765c0,4.286-3.476,7.763-7.764,7.763H87.703c-4.287,0-7.764-3.477-7.764-7.763
		c0-4.289,3.477-7.765,7.764-7.765H154.75z"/>
	
		<circle fill="none" stroke="#BCBCBB" stroke-width="2" stroke-linecap="round" stroke-linejoin="round" stroke-miterlimit="10" cx="88.837" cy="220.192" r="4.536"/>
	
		<circle fill="none" stroke="#BCBCBB" stroke-width="2" stroke-linecap="round" stroke-linejoin="round" stroke-miterlimit="10" cx="99.657" cy="220.192" r="4.536"/>
	
		<circle fill="none" stroke="#BCBCBB" stroke-width="2" stroke-linecap="round" stroke-linejoin="round" stroke-miterlimit="10" cx="110.477" cy="220.192" r="4.536"/>
	
		<circle fill="none" stroke="#BCBCBB" stroke-width="2" stroke-linecap="round" stroke-linejoin="round" stroke-miterlimit="10" cx="121.296" cy="220.192" r="4.536"/>
	
		<circle fill="none" stroke="#BCBCBB" stroke-width="2" stroke-linecap="round" stroke-linejoin="round" stroke-miterlimit="10" cx="132.117" cy="220.192" r="4.536"/>
	
		<circle fill="none" stroke="#BCBCBB" stroke-width="2" stroke-linecap="round" stroke-linejoin="round" stroke-miterlimit="10" cx="142.937" cy="220.192" r="4.536"/>
	
		<circle fill="none" stroke="#BCBCBB" stroke-width="2" stroke-linecap="round" stroke-linejoin="round" stroke-miterlimit="10" cx="153.757" cy="220.192" r="4.536"/>
	
		<polyline fill="none" stroke="#BCBCBB" stroke-width="2" stroke-linecap="round" stroke-linejoin="round" stroke-miterlimit="10" points="
		85.816,202.071 85.816,187.538 120.241,187.538 129.138,169.743 154.554,169.743 154.554,212.428 85.816,212.428 85.816,209.201 	
		"/>
	
		<polygon fill="none" stroke="#BCBCBB" stroke-width="2" stroke-linecap="round" stroke-linejoin="round" stroke-miterlimit="10" points="
		150.422,173.757 132.117,173.757 125.832,187.538 150.422,187.538 	"/>
	
		<polygon fill="none" stroke="#BCBCBB" stroke-width="2" stroke-linecap="round" stroke-linejoin="round" stroke-miterlimit="10" points="
		92.676,168.871 96.279,174.172 96.279,187.538 92.676,187.538 	"/>
	
		<line fill="none" stroke="#BCBCBB" stroke-width="2" stroke-linecap="round" stroke-linejoin="round" stroke-miterlimit="10" x1="125.832" y1="191.726" x2="125.832" y2="204.286"/>
	
		<line fill="none" stroke="#BCBCBB" stroke-width="2" stroke-linecap="round" stroke-linejoin="round" stroke-miterlimit="10" x1="130.011" y1="191.726" x2="134.547" y2="191.726"/>
	
		<line fill="none" stroke="#BCBCBB" stroke-width="2" stroke-linecap="round" stroke-linejoin="round" stroke-miterlimit="10" x1="101.485" y1="191.086" x2="116.141" y2="191.086"/>
	
		<line fill="none" stroke="#BCBCBB" stroke-width="2" stroke-linecap="round" stroke-linejoin="round" stroke-miterlimit="10" x1="104.016" y1="193.935" x2="113.611" y2="193.935"/>
	
		<line fill="none" stroke="#BCBCBB" stroke-width="2" stroke-linecap="round" stroke-linejoin="round" stroke-miterlimit="10" x1="106.371" y1="196.785" x2="111.256" y2="196.785"/>
	<path fill="none" stroke="#BCBCBB" stroke-width="2" stroke-linecap="round" stroke-linejoin="round" stroke-miterlimit="10" d="
		M96.382,201.374c0.65,1.59-0.112,3.406-1.702,4.057l-29.39,12.017c-1.59,0.65-3.406-0.111-4.057-1.701l0,0
		c-0.65-1.593,0.112-3.408,1.702-4.059l29.389-12.016C93.915,199.021,95.731,199.783,96.382,201.374L96.382,201.374z"/>
	<path fill="none" stroke="#BCBCBB" stroke-width="2" stroke-linecap="round" stroke-linejoin="round" stroke-miterlimit="10" d="
		M67.396,209.558c0,0,1.607-14.012-2.111-14.595c-0.873,10.99-6.254,23.638-14.629,33.756c12.637-4.342,14.863-11.17,14.863-11.17"
		/>
</g>
<g>
	<g>
		<path fill="none" stroke="#BCBCBB" stroke-width="2" stroke-linecap="round" stroke-linejoin="round" stroke-miterlimit="10" d="
			M289.705,212.428c4.287,0,7.764,3.477,7.764,7.763c0,4.288-3.477,7.765-7.764,7.765h-67.047c-4.287,0-7.764-3.477-7.764-7.765
			c0-4.286,3.477-7.763,7.764-7.763H289.705z"/>
		
			<circle fill="none" stroke="#BCBCBB" stroke-width="2" stroke-linecap="round" stroke-linejoin="round" stroke-miterlimit="10" cx="223.792" cy="220.19" r="4.536"/>
		
			<circle fill="none" stroke="#BCBCBB" stroke-width="2" stroke-linecap="round" stroke-linejoin="round" stroke-miterlimit="10" cx="234.612" cy="220.19" r="4.536"/>
		
			<circle fill="none" stroke="#BCBCBB" stroke-width="2" stroke-linecap="round" stroke-linejoin="round" stroke-miterlimit="10" cx="245.432" cy="220.19" r="4.536"/>
		
			<circle fill="none" stroke="#BCBCBB" stroke-width="2" stroke-linecap="round" stroke-linejoin="round" stroke-miterlimit="10" cx="256.251" cy="220.19" r="4.536"/>
		
			<circle fill="none" stroke="#BCBCBB" stroke-width="2" stroke-linecap="round" stroke-linejoin="round" stroke-miterlimit="10" cx="267.071" cy="220.19" r="4.536"/>
		
			<circle fill="none" stroke="#BCBCBB" stroke-width="2" stroke-linecap="round" stroke-linejoin="round" stroke-miterlimit="10" cx="277.892" cy="220.19" r="4.536"/>
		
			<circle fill="none" stroke="#BCBCBB" stroke-width="2" stroke-linecap="round" stroke-linejoin="round" stroke-miterlimit="10" cx="288.711" cy="220.19" r="4.536"/>
		
			<polygon fill="none" stroke="#BCBCBB" stroke-width="2" stroke-linecap="round" stroke-linejoin="round" stroke-miterlimit="10" points="
			271.326,165.092 280.713,165.092 290.098,183.6 290.098,190.63 271.326,190.63 		"/>
		
			<polygon fill="none" stroke="#BCBCBB" stroke-width="2" stroke-linecap="round" stroke-linejoin="round" stroke-miterlimit="10" points="
			234.611,205.477 221.516,205.477 221.516,190.63 234.611,190.63 234.611,183.502 264.857,182.503 264.857,160.34 286.523,160.34 
			297.469,181.424 297.469,200.933 277.892,200.933 277.892,209.635 234.611,209.635 		"/>
		
			<line fill="none" stroke="#BCBCBB" stroke-width="2" stroke-linecap="round" stroke-linejoin="round" stroke-miterlimit="10" x1="224.609" y1="194.523" x2="232.469" y2="194.523"/>
		
			<line fill="none" stroke="#BCBCBB" stroke-width="2" stroke-linecap="round" stroke-linejoin="round" stroke-miterlimit="10" x1="224.609" y1="201.372" x2="232.469" y2="201.372"/>
		
			<line fill="none" stroke="#BCBCBB" stroke-width="2" stroke-linecap="round" stroke-linejoin="round" stroke-miterlimit="10" x1="224.609" y1="197.947" x2="232.469" y2="197.947"/>
		
			<circle fill="none" stroke="#BCBCBB" stroke-width="2" stroke-linecap="round" stroke-linejoin="round" stroke-miterlimit="10" cx="334.083" cy="154.066" r="6.272"/>
		
			<circle fill="none" stroke="#BCBCBB" stroke-width="2" stroke-linecap="round" stroke-linejoin="round" stroke-miterlimit="10" cx="361.082" cy="181.42" r="3.56"/>
		
			<circle fill="none" stroke="#BCBCBB" stroke-width="2" stroke-linecap="round" stroke-linejoin="round" stroke-miterlimit="10" cx="341.491" cy="206.743" r="3.155"/>
		
			<line fill="none" stroke="#BCBCBB" stroke-width="2" stroke-linecap="round" stroke-linejoin="round" stroke-miterlimit="10" x1="341.307" y1="203.27" x2="357.561" y2="181.93"/>
		
			<line fill="none" stroke="#BCBCBB" stroke-width="2" stroke-linecap="round" stroke-linejoin="round" stroke-miterlimit="10" x1="361.097" y1="184.993" x2="344.847" y2="206.329"/>
		
			<line fill="none" stroke="#BCBCBB" stroke-width="2" stroke-linecap="round" stroke-linejoin="round" stroke-miterlimit="10" x1="357.207" y1="180.615" x2="336.404" y2="160.041"/>
		
			<line fill="none" stroke="#BCBCBB" stroke-width="2" stroke-linecap="round" stroke-linejoin="round" stroke-miterlimit="10" x1="340.215" y1="156.646" x2="361.012" y2="177.217"/>
		
			<line fill="none" stroke="#BCBCBB" stroke-width="2" stroke-linecap="round" stroke-linejoin="round" stroke-miterlimit="10" x1="335.892" y1="159.98" x2="297.469" y2="196.558"/>
		
			<line fill="none" stroke="#BCBCBB" stroke-width="2" stroke-linecap="round" stroke-linejoin="round" stroke-miterlimit="10" x1="297.42" y1="181.373" x2="327.972" y2="152.293"/>
	</g>
	<path fill="none" stroke="#BCBCBB" stroke-width="2" stroke-linecap="round" stroke-linejoin="round" stroke-miterlimit="10" d="
		M341.491,210.777c0,0-4.773,6.421-7.226,6.871c-4.484,0.82-12.369-5.197-11.297-14.32c0.355-3.022,10.77-11.557,9.84-7.157
		c-2.684,12.702,4.925,10.655,4.925,10.655"/>
</g>
<g>
	
		<circle fill="none" stroke="#BCBCBB" stroke-width="2" stroke-linecap="round" stroke-linejoin="round" stroke-miterlimit="10" cx="956.443" cy="222.963" r="5.771"/>
	
		<circle fill="none" stroke="#BCBCBB" stroke-width="2" stroke-linecap="round" stroke-linejoin="round" stroke-miterlimit="10" cx="970.853" cy="222.963" r="5.772"/>
	
		<circle fill="none" stroke="#BCBCBB" stroke-width="2" stroke-linecap="round" stroke-linejoin="round" stroke-miterlimit="10" cx="1013.505" cy="222.963" r="5.772"/>
	
		<polyline fill="none" stroke="#BCBCBB" stroke-width="2" stroke-linecap="round" stroke-linejoin="round" stroke-miterlimit="10" points="
		950.672,222.963 948.362,222.963 948.362,208.502 972.62,206.346 978.396,189.377 986.323,189.377 991.938,204.628 
		1002.178,204.628 1005.502,199.717 1005.502,177.486 1027.153,177.486 1027.153,201.957 1020.617,201.957 1027.153,213.762 
		1027.153,222.963 1019.273,222.963 	"/>
	
		<line fill="none" stroke="#BCBCBB" stroke-width="2" stroke-linecap="round" stroke-linejoin="round" stroke-miterlimit="10" x1="965.081" y1="222.963" x2="962.215" y2="222.963"/>
	
		<line fill="none" stroke="#BCBCBB" stroke-width="2" stroke-linecap="round" stroke-linejoin="round" stroke-miterlimit="10" x1="1007.732" y1="222.963" x2="976.625" y2="222.963"/>
	
		<rect x="1009.848" y="181.617" fill="none" stroke="#BCBCBB" stroke-width="2" stroke-linecap="round" stroke-linejoin="round" stroke-miterlimit="10" width="13.441" height="13.441"/>
	
		<circle fill="none" stroke="#BCBCBB" stroke-width="2" stroke-linecap="round" stroke-linejoin="round" stroke-miterlimit="10" cx="982.188" cy="196.356" r="2.154"/>
	
		<polyline fill="none" stroke="#BCBCBB" stroke-width="2" stroke-linecap="round" stroke-linejoin="round" stroke-miterlimit="10" points="
		968.434,206.718 949.082,187.031 960.543,169.277 988.396,179.528 1002.385,194.359 995.754,204.628 	"/>
	
		<line fill="none" stroke="#BCBCBB" stroke-width="2" stroke-linecap="round" stroke-linejoin="round" stroke-miterlimit="10" x1="951.957" y1="189.802" x2="964.268" y2="170.733"/>
</g>
<line fill="none" stroke="#BCBCBB" stroke-width="2" stroke-linecap="round" stroke-linejoin="round" stroke-miterlimit="10" x1="4.982" y1="230.802" x2="1076.779" y2="230.802"/>
</svg>
