<?xml version="1.0" encoding="utf-8"?>
<!-- Generator: Adobe Illustrator 16.0.0, SVG Export Plug-In . SVG Version: 6.00 Build 0)  -->
<!DOCTYPE svg PUBLIC "-//W3C//DTD SVG 1.1//EN" "http://www.w3.org/Graphics/SVG/1.1/DTD/svg11.dtd">
<svg version="1.1" id="logo_svg" xmlns="http://www.w3.org/2000/svg" xmlns:xlink="http://www.w3.org/1999/xlink" x="0px" y="0px"
	 width="200px" height="470px" viewBox="0 0 200 470" enable-background="new 0 0 200 470" xml:space="preserve">
<g>
	<path fill="#EF4939" d="M100,145c-49.706,0-90,40.294-90,90s40.294,90,90,90s90-40.294,90-90S149.706,145,100,145z M100,280
		c-24.853,0-45-20.147-45-45s20.147-45,45-45s45,20.147,45,45S124.853,280,100,280z"/>
	<path fill="#EF4939" d="M100,280v45c24.853,0,45,20.146,45,45c0,24.854-20.147,45-45,45s-45-20.146-45-45
		c0-15.954,8.309-29.958,20.829-37.948c-16.044-3.983-30.556-11.838-42.49-22.519C18.837,325.511,10,346.723,10,370
		c0,49.706,40.294,90,90,90s90-40.294,90-90C190,320.294,149.706,280,100,280z"/>
	<path fill="#EF4939" d="M100,145c-24.853,0-45-20.146-45-45c0-24.853,20.147-45,45-45s45,20.146,45,45
		c0,15.954-8.31,29.958-20.829,37.948c16.044,3.983,30.556,11.838,42.49,22.519C181.163,144.49,190,123.277,190,100
		c0-49.706-40.294-90-90-90s-90,40.294-90,90c0,49.706,40.294,90,90,90V145z"/>
</g>
</svg>
