<?xml version="1.0" encoding="utf-8"?>
<!-- Generator: Adobe Illustrator 16.0.0, SVG Export Plug-In . SVG Version: 6.00 Build 0)  -->
<!DOCTYPE svg PUBLIC "-//W3C//DTD SVG 1.1//EN" "http://www.w3.org/Graphics/SVG/1.1/DTD/svg11.dtd">
<svg version="1.1" id="Layer_1" xmlns="http://www.w3.org/2000/svg" xmlns:xlink="http://www.w3.org/1999/xlink" x="0px" y="0px"
	 width="283.465px" height="666.142px" viewBox="0 0 283.465 666.142" enable-background="new 0 0 283.465 666.142"
	 xml:space="preserve">
<g>
	<path fill="#EF4939" d="M141.732,205.512c-70.449,0-127.559,57.11-127.559,127.559S71.283,460.63,141.732,460.63
		s127.559-57.11,127.559-127.559S212.182,205.512,141.732,205.512z M141.732,396.85c-35.225,0-63.779-28.555-63.779-63.779
		s28.555-63.779,63.779-63.779s63.779,28.555,63.779,63.779S176.957,396.85,141.732,396.85z"/>
	<path fill="#EF4939" d="M141.732,396.85v63.78c35.225,0,63.779,28.555,63.779,63.779s-28.555,63.779-63.779,63.779
		s-63.779-28.555-63.779-63.779c0-22.611,11.777-42.459,29.521-53.785c-22.74-5.645-43.309-16.778-60.223-31.917
		c-20.553,22.646-33.078,52.71-33.078,85.702c0,70.449,57.11,127.559,127.559,127.559s127.559-57.109,127.559-127.559
		S212.182,396.85,141.732,396.85z"/>
	<path fill="#EF4939" d="M141.732,205.512c-35.225,0-63.779-28.555-63.779-63.779s28.555-63.779,63.779-63.779
		s63.779,28.555,63.779,63.779c0,22.611-11.777,42.459-29.521,53.785c22.739,5.646,43.308,16.779,60.222,31.917
		c20.554-22.646,33.079-52.71,33.079-85.702c0-70.449-57.11-127.559-127.559-127.559S14.173,71.283,14.173,141.732
		s57.109,127.559,127.559,127.559V205.512z"/>
</g>
</svg>
