<?xml version="1.0" encoding="utf-8"?>
<!-- Generator: Adobe Illustrator 16.0.0, SVG Export Plug-In . SVG Version: 6.00 Build 0)  -->
<!DOCTYPE svg PUBLIC "-//W3C//DTD SVG 1.1//EN" "http://www.w3.org/Graphics/SVG/1.1/DTD/svg11.dtd">
<svg version="1.1" id="Layer_1" xmlns="http://www.w3.org/2000/svg" xmlns:xlink="http://www.w3.org/1999/xlink" x="0px" y="0px"
	 width="1128px" height="386px" viewBox="0 0 1128 386" enable-background="new 0 0 1128 386" xml:space="preserve">
<g>
	<path fill="none" stroke="#BCBCBB" stroke-width="2" stroke-linecap="round" stroke-linejoin="round" stroke-miterlimit="10" d="
		M647.941,16.34c-0.084,3.963-42.391,11.046-92.143,11.046s-90.084-7.335-90.084-11.046c0-3.354,40.332-11.046,90.084-11.046
		S648.018,12.798,647.941,16.34z"/>
	<path fill="none" stroke="#BCBCBB" stroke-width="2" stroke-linecap="round" stroke-linejoin="round" stroke-miterlimit="10" d="
		M464.715,16.34c0.084,3.963,42.393,11.046,92.145,11.046s90.082-7.335,90.082-11.046c0-3.354-40.33-11.046-90.082-11.046
		S464.641,12.798,464.715,16.34z"/>
	<line fill="none" stroke="#BCBCBB" stroke-width="2" stroke-miterlimit="10" x1="647.941" y1="16.34" x2="580.309" y2="97.783"/>
	
		<line fill="none" stroke="#BCBCBB" stroke-width="2" stroke-linecap="round" stroke-linejoin="round" stroke-miterlimit="10" x1="464.715" y1="16.34" x2="533.229" y2="97.783"/>
	
		<rect x="533.35" y="97.783" fill="none" stroke="#BCBCBB" stroke-width="2" stroke-linecap="round" stroke-linejoin="round" stroke-miterlimit="10" width="46.834" height="9.868"/>
	<path fill="none" stroke="#BCBCBB" stroke-width="2" stroke-linecap="round" stroke-linejoin="round" stroke-miterlimit="10" d="
		M629.555,175.413h-35.277c-10.57-0.489-19.006-7.132-19.006-16.191v-51.57h-36.123v67.762v6.649c0,17.02,5.852,28.913,26.533,29.68
		h9.59v-0.207h54.283V175.413z"/>
	<path fill="none" stroke="#BCBCBB" stroke-width="2" stroke-linecap="round" stroke-linejoin="round" stroke-miterlimit="10" d="
		M545.383,166.259c-1.893,23.583-2.643,33.779,19.449,37.733"/>
	
		<line fill="none" stroke="#BCBCBB" stroke-width="2" stroke-linecap="round" stroke-linejoin="round" stroke-miterlimit="10" x1="628.93" y1="205.11" x2="591.43" y2="205.11"/>
	<path fill="none" stroke="#BCBCBB" stroke-width="2" stroke-linecap="round" stroke-linejoin="round" stroke-miterlimit="10" d="
		M886.619,368.706c0,6.628-5.371,12-12,12H641.555c-6.627,0-12-5.372-12-12V165.301c0-6.627,5.373-12,12-12h233.064
		c6.629,0,12,5.373,12,12V368.706z"/>
	
		<rect x="703.76" y="144.381" fill="none" stroke="#BCBCBB" stroke-width="2" stroke-linecap="round" stroke-linejoin="round" stroke-miterlimit="10" width="42.057" height="8.92"/>
	<path fill="none" stroke="#BCBCBB" stroke-width="2" stroke-linecap="round" stroke-linejoin="round" stroke-miterlimit="10" d="
		M740.85,143.387v-26.79c0-9.048-7.373-19.112-14-19.112h-2.139c-6.627,0-15,10.064-15,19.112v26.79"/>
	<path fill="none" stroke="#BCBCBB" stroke-width="2" stroke-linecap="round" stroke-linejoin="round" stroke-miterlimit="10" d="
		M719.936,143.272c2.527-3.332,2.217-11.359,2.217-16.003c0-4.323,0.543-13.739-5.729-13.211c-0.293,1.548-0.664,2.683,0.393,3.506
		c1.758,1.373,5.703,1.883,7.545,2c1.717,0.108,6.078-0.675,7.096-2.268c1.105-1.728-1.99-3.934-3.988-3.458
		c-0.783,1.94-0.441,6.218-0.443,8.33c-0.002,3.133,0.15,6.323,0.887,9.366c1.047,4.325,5.105,8.205,5.539,12.402"/>
	
		<line fill="none" stroke="#BCBCBB" stroke-width="2" stroke-linecap="round" stroke-linejoin="round" stroke-miterlimit="10" x1="724.271" y1="89.97" x2="724.65" y2="81.55"/>
	
		<line fill="none" stroke="#BCBCBB" stroke-width="2" stroke-linecap="round" stroke-linejoin="round" stroke-miterlimit="10" x1="715.934" y1="91.922" x2="711.623" y2="84.679"/>
	
		<line fill="none" stroke="#BCBCBB" stroke-width="2" stroke-linecap="round" stroke-linejoin="round" stroke-miterlimit="10" x1="708.969" y1="96.748" x2="702.553" y2="91.281"/>
	
		<line fill="none" stroke="#BCBCBB" stroke-width="2" stroke-linecap="round" stroke-linejoin="round" stroke-miterlimit="10" x1="703.496" y1="104.719" x2="695.08" y2="104.258"/>
	
		<line fill="none" stroke="#BCBCBB" stroke-width="2" stroke-linecap="round" stroke-linejoin="round" stroke-miterlimit="10" x1="732.912" y1="92.281" x2="736.252" y2="84.543"/>
	
		<line fill="none" stroke="#BCBCBB" stroke-width="2" stroke-linecap="round" stroke-linejoin="round" stroke-miterlimit="10" x1="738.986" y1="97.028" x2="744.879" y2="91.002"/>
	
		<line fill="none" stroke="#BCBCBB" stroke-width="2" stroke-linecap="round" stroke-linejoin="round" stroke-miterlimit="10" x1="744.227" y1="104.852" x2="752.406" y2="102.821"/>
	
		<rect x="765.879" y="144.381" fill="none" stroke="#BCBCBB" stroke-width="2" stroke-linecap="round" stroke-linejoin="round" stroke-miterlimit="10" width="42.057" height="8.92"/>
	<path fill="none" stroke="#BCBCBB" stroke-width="2" stroke-linecap="round" stroke-linejoin="round" stroke-miterlimit="10" d="
		M802.969,143.387v-26.79c0-9.048-7.373-19.112-14-19.112h-2.139c-6.627,0-15,10.064-15,19.112v26.79"/>
	<path fill="none" stroke="#BCBCBB" stroke-width="2" stroke-linecap="round" stroke-linejoin="round" stroke-miterlimit="10" d="
		M782.055,143.272c2.527-3.332,2.217-11.359,2.217-16.003c0-4.323,0.543-13.739-5.729-13.211c-0.293,1.548-0.664,2.683,0.393,3.506
		c1.758,1.373,5.703,1.883,7.545,2c1.717,0.108,6.078-0.675,7.096-2.268c1.105-1.728-1.99-3.934-3.988-3.458
		c-0.783,1.94-0.441,6.218-0.443,8.33c-0.002,3.133,0.15,6.323,0.887,9.366c1.047,4.325,5.105,8.205,5.539,12.402"/>
	
		<line fill="none" stroke="#BCBCBB" stroke-width="2" stroke-linecap="round" stroke-linejoin="round" stroke-miterlimit="10" x1="786.391" y1="89.97" x2="786.77" y2="81.55"/>
	
		<line fill="none" stroke="#BCBCBB" stroke-width="2" stroke-linecap="round" stroke-linejoin="round" stroke-miterlimit="10" x1="778.053" y1="91.922" x2="773.742" y2="84.679"/>
	
		<line fill="none" stroke="#BCBCBB" stroke-width="2" stroke-linecap="round" stroke-linejoin="round" stroke-miterlimit="10" x1="771.088" y1="96.748" x2="764.672" y2="91.281"/>
	
		<line fill="none" stroke="#BCBCBB" stroke-width="2" stroke-linecap="round" stroke-linejoin="round" stroke-miterlimit="10" x1="765.615" y1="104.719" x2="757.199" y2="104.258"/>
	
		<line fill="none" stroke="#BCBCBB" stroke-width="2" stroke-linecap="round" stroke-linejoin="round" stroke-miterlimit="10" x1="795.031" y1="92.281" x2="798.371" y2="84.543"/>
	
		<line fill="none" stroke="#BCBCBB" stroke-width="2" stroke-linecap="round" stroke-linejoin="round" stroke-miterlimit="10" x1="801.105" y1="97.028" x2="806.998" y2="91.002"/>
	
		<line fill="none" stroke="#BCBCBB" stroke-width="2" stroke-linecap="round" stroke-linejoin="round" stroke-miterlimit="10" x1="806.346" y1="104.852" x2="814.525" y2="102.821"/>
	
		<rect x="830.791" y="144.381" fill="none" stroke="#BCBCBB" stroke-width="2" stroke-linecap="round" stroke-linejoin="round" stroke-miterlimit="10" width="42.057" height="8.92"/>
	<path fill="none" stroke="#BCBCBB" stroke-width="2" stroke-linecap="round" stroke-linejoin="round" stroke-miterlimit="10" d="
		M867.879,143.387v-26.79c0-9.048-7.371-19.112-14-19.112h-2.137c-6.629,0-15,10.064-15,19.112v26.79"/>
	<path fill="none" stroke="#BCBCBB" stroke-width="2" stroke-linecap="round" stroke-linejoin="round" stroke-miterlimit="10" d="
		M846.967,143.272c2.527-3.332,2.215-11.359,2.215-16.003c0-4.323,0.543-13.739-5.729-13.211c-0.291,1.548-0.662,2.683,0.393,3.506
		c1.76,1.373,5.703,1.883,7.547,2c1.715,0.108,6.078-0.675,7.096-2.268c1.104-1.728-1.99-3.934-3.988-3.458
		c-0.783,1.94-0.441,6.218-0.443,8.33c-0.004,3.133,0.15,6.323,0.887,9.366c1.047,4.325,5.105,8.205,5.539,12.402"/>
	
		<line fill="none" stroke="#BCBCBB" stroke-width="2" stroke-linecap="round" stroke-linejoin="round" stroke-miterlimit="10" x1="851.303" y1="89.97" x2="851.68" y2="81.55"/>
	
		<line fill="none" stroke="#BCBCBB" stroke-width="2" stroke-linecap="round" stroke-linejoin="round" stroke-miterlimit="10" x1="842.963" y1="91.922" x2="838.654" y2="84.679"/>
	
		<line fill="none" stroke="#BCBCBB" stroke-width="2" stroke-linecap="round" stroke-linejoin="round" stroke-miterlimit="10" x1="835.998" y1="96.748" x2="829.582" y2="91.281"/>
	
		<line fill="none" stroke="#BCBCBB" stroke-width="2" stroke-linecap="round" stroke-linejoin="round" stroke-miterlimit="10" x1="830.527" y1="104.719" x2="822.111" y2="104.258"/>
	
		<line fill="none" stroke="#BCBCBB" stroke-width="2" stroke-linecap="round" stroke-linejoin="round" stroke-miterlimit="10" x1="859.943" y1="92.281" x2="863.281" y2="84.543"/>
	
		<line fill="none" stroke="#BCBCBB" stroke-width="2" stroke-linecap="round" stroke-linejoin="round" stroke-miterlimit="10" x1="866.018" y1="97.028" x2="871.908" y2="91.002"/>
	
		<line fill="none" stroke="#BCBCBB" stroke-width="2" stroke-linecap="round" stroke-linejoin="round" stroke-miterlimit="10" x1="871.258" y1="104.852" x2="879.438" y2="102.821"/>
	<path fill="none" stroke="#BCBCBB" stroke-width="2" stroke-linecap="round" stroke-linejoin="round" stroke-miterlimit="10" d="
		M838.193,199.688c-3.861-2.218-8.338-3.485-13.111-3.485c-14.566,0-26.373,11.808-26.373,26.373
		c0,8.715,4.229,16.438,10.744,21.241l-4.846,10.394c-10.408-6.728-17.301-18.423-17.301-31.737
		c0-20.863,16.912-37.776,37.775-37.776s37.775,16.913,37.775,37.776c0,14.104-7.734,26.394-19.188,32.882l-4.793-10.302
		c7.545-4.641,12.578-12.97,12.578-22.478c0-7.238-2.916-13.795-7.637-18.561"/>
	
		<line fill="none" stroke="#BCBCBB" stroke-width="2" stroke-linecap="round" stroke-linejoin="round" stroke-miterlimit="10" x1="825.082" y1="184.696" x2="825.082" y2="198.202"/>
	
		<line fill="none" stroke="#BCBCBB" stroke-width="2" stroke-linecap="round" stroke-linejoin="round" stroke-miterlimit="10" x1="800.994" y1="222.496" x2="787.488" y2="222.496"/>
	
		<line fill="none" stroke="#BCBCBB" stroke-width="2" stroke-linecap="round" stroke-linejoin="round" stroke-miterlimit="10" x1="862.189" y1="222.496" x2="848.684" y2="222.496"/>
	
		<line fill="none" stroke="#BCBCBB" stroke-width="2" stroke-linecap="round" stroke-linejoin="round" stroke-miterlimit="10" x1="794.242" y1="200.321" x2="804.885" y2="208.637"/>
	
		<line fill="none" stroke="#BCBCBB" stroke-width="2" stroke-linecap="round" stroke-linejoin="round" stroke-miterlimit="10" x1="855.096" y1="200.406" x2="844.453" y2="208.721"/>
	
		<line fill="none" stroke="#BCBCBB" stroke-width="2" stroke-linecap="round" stroke-linejoin="round" stroke-miterlimit="10" x1="795.885" y1="246.507" x2="806.527" y2="238.191"/>
	
		<line fill="none" stroke="#BCBCBB" stroke-width="2" stroke-linecap="round" stroke-linejoin="round" stroke-miterlimit="10" x1="855.096" y1="245.75" x2="844.453" y2="237.436"/>
	<g>
		
			<circle fill="none" stroke="#BCBCBB" stroke-width="2" stroke-linecap="round" stroke-linejoin="round" stroke-miterlimit="10" cx="826.459" cy="224.892" r="6.046"/>
		<path fill="none" stroke="#BCBCBB" stroke-width="2" stroke-linecap="round" stroke-linejoin="round" stroke-miterlimit="10" d="
			M831.516,228.205c-1.828,2.793-5.578,3.574-8.369,1.743c-2.795-1.83-3.574-5.578-1.744-8.37
			c1.83-2.794,21.781-28.303,24.574-26.472C848.77,196.936,833.348,225.412,831.516,228.205z"/>
	</g>
	<path fill="none" stroke="#BCBCBB" stroke-width="2" stroke-linecap="round" stroke-linejoin="round" stroke-miterlimit="10" d="
		M754.162,238.447c0,6.627-5.373,12-12,12h-82.279c-6.627,0-12-5.373-12-12v-43.954c0-6.627,5.373-12,12-12h82.279
		c6.627,0,12,5.373,12,12V238.447z"/>
	
		<rect x="656.781" y="221.232" fill="none" stroke="#BCBCBB" stroke-width="2" stroke-linecap="round" stroke-linejoin="round" stroke-miterlimit="10" width="15.467" height="8.289"/>
	
		<polyline fill="none" stroke="#BCBCBB" stroke-width="2" stroke-linecap="round" stroke-linejoin="round" stroke-miterlimit="10" points="
		661.84,221.232 661.84,193.475 667.191,193.475 667.191,221.232 	"/>
	
		<polyline fill="none" stroke="#BCBCBB" stroke-width="2" stroke-linecap="round" stroke-linejoin="round" stroke-miterlimit="10" points="
		667.191,229.521 667.191,239.555 661.84,239.555 661.84,229.521 	"/>
	
		<rect x="680.221" y="203.453" fill="none" stroke="#BCBCBB" stroke-width="2" stroke-linecap="round" stroke-linejoin="round" stroke-miterlimit="10" width="15.467" height="8.289"/>
	
		<polyline fill="none" stroke="#BCBCBB" stroke-width="2" stroke-linecap="round" stroke-linejoin="round" stroke-miterlimit="10" points="
		690.629,211.742 690.629,239.555 685.277,239.555 685.277,211.742 	"/>
	
		<polyline fill="none" stroke="#BCBCBB" stroke-width="2" stroke-linecap="round" stroke-linejoin="round" stroke-miterlimit="10" points="
		685.277,203.453 685.277,193.475 690.629,193.475 690.629,203.453 	"/>
	
		<rect x="703.486" y="212.176" fill="none" stroke="#BCBCBB" stroke-width="2" stroke-linecap="round" stroke-linejoin="round" stroke-miterlimit="10" width="15.467" height="8.289"/>
	
		<polyline fill="none" stroke="#BCBCBB" stroke-width="2" stroke-linecap="round" stroke-linejoin="round" stroke-miterlimit="10" points="
		714.068,220.465 714.068,239.555 708.717,239.555 708.717,220.465 	"/>
	
		<polyline fill="none" stroke="#BCBCBB" stroke-width="2" stroke-linecap="round" stroke-linejoin="round" stroke-miterlimit="10" points="
		708.717,212.176 708.717,193.475 714.068,193.475 714.068,212.176 	"/>
	
		<rect x="727.098" y="217.489" fill="none" stroke="#BCBCBB" stroke-width="2" stroke-linecap="round" stroke-linejoin="round" stroke-miterlimit="10" width="15.467" height="8.289"/>
	
		<polyline fill="none" stroke="#BCBCBB" stroke-width="2" stroke-linecap="round" stroke-linejoin="round" stroke-miterlimit="10" points="
		732.156,217.489 732.156,193.475 737.508,193.475 737.508,216.837 	"/>
	
		<polyline fill="none" stroke="#BCBCBB" stroke-width="2" stroke-linecap="round" stroke-linejoin="round" stroke-miterlimit="10" points="
		737.508,225.778 737.508,239.555 732.156,239.555 732.156,225.779 	"/>
	
		<polyline fill="none" stroke="#BCBCBB" stroke-width="2" stroke-linecap="round" stroke-linejoin="round" stroke-miterlimit="10" points="
		854.914,325.188 854.914,286.137 866.465,286.137 	"/>
	
		<polyline fill="none" stroke="#BCBCBB" stroke-width="2" stroke-linecap="round" stroke-linejoin="round" stroke-miterlimit="10" points="
		876.074,331.791 876.074,370.842 864.523,370.842 	"/>
	
		<line fill="none" stroke="#BCBCBB" stroke-width="2" stroke-linecap="round" stroke-linejoin="round" stroke-miterlimit="10" x1="859.135" y1="293.76" x2="872.051" y2="293.76"/>
	
		<line fill="none" stroke="#BCBCBB" stroke-width="2" stroke-linecap="round" stroke-linejoin="round" stroke-miterlimit="10" x1="859.135" y1="301.39" x2="872.051" y2="301.39"/>
	
		<line fill="none" stroke="#BCBCBB" stroke-width="2" stroke-linecap="round" stroke-linejoin="round" stroke-miterlimit="10" x1="859.135" y1="309.021" x2="872.051" y2="309.021"/>
	
		<line fill="none" stroke="#BCBCBB" stroke-width="2" stroke-linecap="round" stroke-linejoin="round" stroke-miterlimit="10" x1="859.135" y1="316.65" x2="872.051" y2="316.65"/>
	
		<line fill="none" stroke="#BCBCBB" stroke-width="2" stroke-linecap="round" stroke-linejoin="round" stroke-miterlimit="10" x1="859.135" y1="324.28" x2="872.051" y2="324.28"/>
	
		<line fill="none" stroke="#BCBCBB" stroke-width="2" stroke-linecap="round" stroke-linejoin="round" stroke-miterlimit="10" x1="859.135" y1="331.911" x2="872.051" y2="331.911"/>
	
		<line fill="none" stroke="#BCBCBB" stroke-width="2" stroke-linecap="round" stroke-linejoin="round" stroke-miterlimit="10" x1="859.135" y1="339.541" x2="872.051" y2="339.541"/>
	
		<line fill="none" stroke="#BCBCBB" stroke-width="2" stroke-linecap="round" stroke-linejoin="round" stroke-miterlimit="10" x1="859.135" y1="347.171" x2="872.051" y2="347.171"/>
	
		<line fill="none" stroke="#BCBCBB" stroke-width="2" stroke-linecap="round" stroke-linejoin="round" stroke-miterlimit="10" x1="859.135" y1="354.802" x2="872.051" y2="354.802"/>
	
		<line fill="none" stroke="#BCBCBB" stroke-width="2" stroke-linecap="round" stroke-linejoin="round" stroke-miterlimit="10" x1="859.135" y1="362.432" x2="872.051" y2="362.432"/>
	
		<circle fill="none" stroke="#BCBCBB" stroke-width="2" stroke-linecap="round" stroke-linejoin="round" stroke-miterlimit="10" cx="795.909" cy="315.259" r="7.038"/>
	
		<circle fill="none" stroke="#BCBCBB" stroke-width="2" stroke-linecap="round" stroke-linejoin="round" stroke-miterlimit="10" cx="795.908" cy="315.258" r="15.113"/>
	
		<circle fill="none" stroke="#BCBCBB" stroke-width="2" stroke-linecap="round" stroke-linejoin="round" stroke-miterlimit="10" cx="795.909" cy="315.259" r="34.065"/>
	
		<line fill="none" stroke="#BCBCBB" stroke-width="2" stroke-linecap="round" stroke-linejoin="round" stroke-miterlimit="10" x1="794.908" y1="282.193" x2="794.908" y2="287.879"/>
	
		<line fill="none" stroke="#BCBCBB" stroke-width="2" stroke-linecap="round" stroke-linejoin="round" stroke-miterlimit="10" x1="796.121" y1="348.323" x2="796.121" y2="342.105"/>
	
		<line fill="none" stroke="#BCBCBB" stroke-width="2" stroke-linecap="round" stroke-linejoin="round" stroke-miterlimit="10" x1="829.578" y1="314.651" x2="823.893" y2="314.651"/>
	
		<line fill="none" stroke="#BCBCBB" stroke-width="2" stroke-linecap="round" stroke-linejoin="round" stroke-miterlimit="10" x1="762.6" y1="315.864" x2="768.816" y2="315.864"/>
	
		<line fill="none" stroke="#BCBCBB" stroke-width="2" stroke-linecap="round" stroke-linejoin="round" stroke-miterlimit="10" x1="818.666" y1="290.36" x2="814.645" y2="294.381"/>
	
		<line fill="none" stroke="#BCBCBB" stroke-width="2" stroke-linecap="round" stroke-linejoin="round" stroke-miterlimit="10" x1="772.762" y1="337.979" x2="777.158" y2="333.582"/>
	
		<line fill="none" stroke="#BCBCBB" stroke-width="2" stroke-linecap="round" stroke-linejoin="round" stroke-miterlimit="10" x1="820.23" y1="337.827" x2="816.209" y2="333.807"/>
	
		<line fill="none" stroke="#BCBCBB" stroke-width="2" stroke-linecap="round" stroke-linejoin="round" stroke-miterlimit="10" x1="772.012" y1="291.323" x2="776.408" y2="295.72"/>
	
		<line fill="none" stroke="#BCBCBB" stroke-width="2" stroke-linecap="round" stroke-linejoin="round" stroke-miterlimit="10" x1="826.322" y1="301.401" x2="821.027" y2="303.472"/>
	
		<line fill="none" stroke="#BCBCBB" stroke-width="2" stroke-linecap="round" stroke-linejoin="round" stroke-miterlimit="10" x1="765.174" y1="326.611" x2="770.965" y2="324.348"/>
	
		<line fill="none" stroke="#BCBCBB" stroke-width="2" stroke-linecap="round" stroke-linejoin="round" stroke-miterlimit="10" x1="808.719" y1="345.511" x2="806.646" y2="340.215"/>
	
		<line fill="none" stroke="#BCBCBB" stroke-width="2" stroke-linecap="round" stroke-linejoin="round" stroke-miterlimit="10" x1="783.197" y1="283.571" x2="785.463" y2="289.362"/>
	
		<line fill="none" stroke="#BCBCBB" stroke-width="2" stroke-linecap="round" stroke-linejoin="round" stroke-miterlimit="10" x1="826.658" y1="326.868" x2="821.449" y2="324.589"/>
	
		<line fill="none" stroke="#BCBCBB" stroke-width="2" stroke-linecap="round" stroke-linejoin="round" stroke-miterlimit="10" x1="765.594" y1="301.457" x2="771.289" y2="303.951"/>
	
		<line fill="none" stroke="#BCBCBB" stroke-width="2" stroke-linecap="round" stroke-linejoin="round" stroke-miterlimit="10" x1="783.021" y1="345.611" x2="785.301" y2="340.401"/>
	
		<line fill="none" stroke="#BCBCBB" stroke-width="2" stroke-linecap="round" stroke-linejoin="round" stroke-miterlimit="10" x1="808.773" y1="283.768" x2="806.279" y2="289.464"/>
	
		<line fill="none" stroke="#BCBCBB" stroke-width="2" stroke-linecap="round" stroke-linejoin="round" stroke-miterlimit="10" x1="800.783" y1="282.507" x2="800.217" y2="285.651"/>
	
		<line fill="none" stroke="#BCBCBB" stroke-width="2" stroke-linecap="round" stroke-linejoin="round" stroke-miterlimit="10" x1="790.264" y1="347.806" x2="790.787" y2="344.889"/>
	
		<line fill="none" stroke="#BCBCBB" stroke-width="2" stroke-linecap="round" stroke-linejoin="round" stroke-miterlimit="10" x1="829.156" y1="320.593" x2="826.014" y2="320.027"/>
	
		<line fill="none" stroke="#BCBCBB" stroke-width="2" stroke-linecap="round" stroke-linejoin="round" stroke-miterlimit="10" x1="763.021" y1="309.923" x2="766.412" y2="310.533"/>
	
		<line fill="none" stroke="#BCBCBB" stroke-width="2" stroke-linecap="round" stroke-linejoin="round" stroke-miterlimit="10" x1="822.719" y1="294.753" x2="819.828" y2="296.762"/>
	
		<line fill="none" stroke="#BCBCBB" stroke-width="2" stroke-linecap="round" stroke-linejoin="round" stroke-miterlimit="10" x1="769.107" y1="333.487" x2="771.572" y2="331.776"/>
	
		<line fill="none" stroke="#BCBCBB" stroke-width="2" stroke-linecap="round" stroke-linejoin="round" stroke-miterlimit="10" x1="815.852" y1="341.746" x2="814.209" y2="339.384"/>
	
		<line fill="none" stroke="#BCBCBB" stroke-width="2" stroke-linecap="round" stroke-linejoin="round" stroke-miterlimit="10" x1="776.631" y1="287.438" x2="778.723" y2="290.448"/>
	
		<line fill="none" stroke="#BCBCBB" stroke-width="2" stroke-linecap="round" stroke-linejoin="round" stroke-miterlimit="10" x1="828.299" y1="306.976" x2="825.006" y2="307.625"/>
	
		<line fill="none" stroke="#BCBCBB" stroke-width="2" stroke-linecap="round" stroke-linejoin="round" stroke-miterlimit="10" x1="763.652" y1="320.956" x2="766.957" y2="320.305"/>
	
		<line fill="none" stroke="#BCBCBB" stroke-width="2" stroke-linecap="round" stroke-linejoin="round" stroke-miterlimit="10" x1="803.16" y1="347.27" x2="802.512" y2="343.976"/>
	
		<line fill="none" stroke="#BCBCBB" stroke-width="2" stroke-linecap="round" stroke-linejoin="round" stroke-miterlimit="10" x1="789.014" y1="281.789" x2="789.721" y2="285.375"/>
	
		<line fill="none" stroke="#BCBCBB" stroke-width="2" stroke-linecap="round" stroke-linejoin="round" stroke-miterlimit="10" x1="824.117" y1="332.099" x2="821.619" y2="330.423"/>
	
		<line fill="none" stroke="#BCBCBB" stroke-width="2" stroke-linecap="round" stroke-linejoin="round" stroke-miterlimit="10" x1="768.521" y1="296.274" x2="771.588" y2="298.331"/>
	
		<line fill="none" stroke="#BCBCBB" stroke-width="2" stroke-linecap="round" stroke-linejoin="round" stroke-miterlimit="10" x1="777.852" y1="342.817" x2="779.664" y2="340.112"/>
	
		<line fill="none" stroke="#BCBCBB" stroke-width="2" stroke-linecap="round" stroke-linejoin="round" stroke-miterlimit="10" x1="814.15" y1="286.512" x2="812" y2="289.717"/>
	
		<circle fill="none" stroke="#BCBCBB" stroke-width="2" stroke-linecap="round" stroke-linejoin="round" stroke-miterlimit="10" cx="657.604" cy="289.524" r="8.991"/>
	
		<circle fill="none" stroke="#BCBCBB" stroke-width="2" stroke-linecap="round" stroke-linejoin="round" stroke-miterlimit="10" cx="657.604" cy="289.525" r="3.204"/>
	
		<circle fill="none" stroke="#BCBCBB" stroke-width="2" stroke-linecap="round" stroke-linejoin="round" stroke-miterlimit="10" cx="715.82" cy="337.062" r="23.664"/>
	
		<line fill="none" stroke="#BCBCBB" stroke-width="2" stroke-linecap="round" stroke-linejoin="round" stroke-miterlimit="10" x1="661.84" y1="281.594" x2="728.244" y2="317.061"/>
	
		<line fill="none" stroke="#BCBCBB" stroke-width="2" stroke-linecap="round" stroke-linejoin="round" stroke-miterlimit="10" x1="650.709" y1="295.297" x2="699.1" y2="353.807"/>
	<path fill="none" stroke="#BCBCBB" stroke-width="2" stroke-linecap="round" stroke-linejoin="round" stroke-miterlimit="10" d="
		M629.555,338.924H28.271c0,0-22.498,0-22.498,15.225s22.498,15.225,22.498,15.225h601.193"/>
	<path fill="none" stroke="#BCBCBB" stroke-width="2" stroke-linecap="round" stroke-linejoin="round" stroke-miterlimit="10" d="
		M886.406,369.373h216.85c0,0,19.121,0,19.121-15.139c0-15.311-19.305-15.311-19.305-15.311H886.621"/>
	
		<circle fill="none" stroke="#BCBCBB" stroke-width="2" stroke-linecap="round" stroke-linejoin="round" stroke-miterlimit="10" cx="21.115" cy="354.054" r="6.5"/>
	
		<rect x="39.137" y="347.554" fill="none" stroke="#BCBCBB" stroke-width="2" stroke-linecap="round" stroke-linejoin="round" stroke-miterlimit="10" width="62.713" height="13"/>
	
		<circle fill="none" stroke="#BCBCBB" stroke-width="2" stroke-linecap="round" stroke-linejoin="round" stroke-miterlimit="10" cx="119.871" cy="354.054" r="6.5"/>
	
		<rect x="137.895" y="347.554" fill="none" stroke="#BCBCBB" stroke-width="2" stroke-linecap="round" stroke-linejoin="round" stroke-miterlimit="10" width="62.711" height="13"/>
	
		<circle fill="none" stroke="#BCBCBB" stroke-width="2" stroke-linecap="round" stroke-linejoin="round" stroke-miterlimit="10" cx="218.629" cy="354.054" r="6.5"/>
	
		<rect x="236.652" y="347.554" fill="none" stroke="#BCBCBB" stroke-width="2" stroke-linecap="round" stroke-linejoin="round" stroke-miterlimit="10" width="62.711" height="13"/>
	
		<circle fill="none" stroke="#BCBCBB" stroke-width="2" stroke-linecap="round" stroke-linejoin="round" stroke-miterlimit="10" cx="317.387" cy="354.054" r="6.5"/>
	
		<rect x="335.41" y="347.554" fill="none" stroke="#BCBCBB" stroke-width="2" stroke-linecap="round" stroke-linejoin="round" stroke-miterlimit="10" width="62.711" height="13"/>
	
		<circle fill="none" stroke="#BCBCBB" stroke-width="2" stroke-linecap="round" stroke-linejoin="round" stroke-miterlimit="10" cx="416.145" cy="354.054" r="6.5"/>
	
		<rect x="434.166" y="347.554" fill="none" stroke="#BCBCBB" stroke-width="2" stroke-linecap="round" stroke-linejoin="round" stroke-miterlimit="10" width="62.711" height="13"/>
	
		<circle fill="none" stroke="#BCBCBB" stroke-width="2" stroke-linecap="round" stroke-linejoin="round" stroke-miterlimit="10" cx="514.9" cy="354.054" r="6.5"/>
	
		<rect x="532.924" y="347.554" fill="none" stroke="#BCBCBB" stroke-width="2" stroke-linecap="round" stroke-linejoin="round" stroke-miterlimit="10" width="62.711" height="13"/>
	
		<circle fill="none" stroke="#BCBCBB" stroke-width="2" stroke-linecap="round" stroke-linejoin="round" stroke-miterlimit="10" cx="613.658" cy="354.054" r="6.5"/>
	
		<polyline fill="none" stroke="#BCBCBB" stroke-width="2" stroke-linecap="round" stroke-linejoin="round" stroke-miterlimit="10" points="
		886.619,347.554 891.908,347.554 891.908,360.554 886.619,360.554 	"/>
	
		<circle fill="none" stroke="#BCBCBB" stroke-width="2" stroke-linecap="round" stroke-linejoin="round" stroke-miterlimit="10" cx="909.93" cy="354.054" r="6.5"/>
	
		<rect x="927.953" y="347.554" fill="none" stroke="#BCBCBB" stroke-width="2" stroke-linecap="round" stroke-linejoin="round" stroke-miterlimit="10" width="62.711" height="13"/>
	
		<circle fill="none" stroke="#BCBCBB" stroke-width="2" stroke-linecap="round" stroke-linejoin="round" stroke-miterlimit="10" cx="1008.688" cy="354.054" r="6.5"/>
	
		<rect x="1026.709" y="347.554" fill="none" stroke="#BCBCBB" stroke-width="2" stroke-linecap="round" stroke-linejoin="round" stroke-miterlimit="10" width="62.713" height="13"/>
	
		<circle fill="none" stroke="#BCBCBB" stroke-width="2" stroke-linecap="round" stroke-linejoin="round" stroke-miterlimit="10" cx="1107.445" cy="354.054" r="6.5"/>
	<g>
		<path fill="none" stroke="#BCBCBB" stroke-width="2" stroke-linecap="round" stroke-linejoin="round" stroke-miterlimit="10" d="
			M715.342,324.583c-0.326,0.013-0.652,0.026-0.98,0.064c-2.098,0.247-4.012,1.005-5.637,2.127"/>
		<path fill="none" stroke="#BCBCBB" stroke-width="2" stroke-linecap="round" stroke-linejoin="round" stroke-miterlimit="10" d="
			M726.389,330.407c-1.262-1.998-3.059-3.593-5.172-4.609"/>
		<path fill="none" stroke="#BCBCBB" stroke-width="2" stroke-linecap="round" stroke-linejoin="round" stroke-miterlimit="10" d="
			M726.893,342.857c1.057-2.014,1.562-4.335,1.377-6.752"/>
		<path fill="none" stroke="#BCBCBB" stroke-width="2" stroke-linecap="round" stroke-linejoin="round" stroke-miterlimit="10" d="
			M704.748,331.266c-1.068,2.037-1.574,4.388-1.369,6.833"/>
		<path fill="none" stroke="#BCBCBB" stroke-width="2" stroke-linecap="round" stroke-linejoin="round" stroke-miterlimit="10" d="
			M716.379,349.536c0.299-0.013,0.6-0.023,0.902-0.06c2.098-0.246,4.01-1.005,5.635-2.127"/>
		<path fill="none" stroke="#BCBCBB" stroke-width="2" stroke-linecap="round" stroke-linejoin="round" stroke-miterlimit="10" d="
			M705.297,343.785c1.271,1.987,3.078,3.57,5.199,4.573"/>
	</g>
	<rect x="493.025" y="334.713" fill="#BCBCBB" width="14.479" height="3.366"/>
	<rect x="518.643" y="334.713" fill="#BCBCBB" width="14.479" height="3.366"/>
	<rect x="544.262" y="334.713" fill="#BCBCBB" width="14.479" height="3.366"/>
	<rect x="569.879" y="334.713" fill="#BCBCBB" width="14.479" height="3.366"/>
	<rect x="595.498" y="334.713" fill="#BCBCBB" width="14.479" height="3.366"/>
	<rect x="621.115" y="334.713" fill="#BCBCBB" width="8.439" height="3.366"/>
	<rect x="339.316" y="334.713" fill="#BCBCBB" width="14.479" height="3.366"/>
	<rect x="364.934" y="334.713" fill="#BCBCBB" width="14.479" height="3.366"/>
	<rect x="390.553" y="334.713" fill="#BCBCBB" width="14.479" height="3.366"/>
	<rect x="416.17" y="334.713" fill="#BCBCBB" width="14.479" height="3.366"/>
	<rect x="441.789" y="334.713" fill="#BCBCBB" width="14.479" height="3.366"/>
	<rect x="467.408" y="334.713" fill="#BCBCBB" width="14.477" height="3.366"/>
	<rect x="185.607" y="334.713" fill="#BCBCBB" width="14.479" height="3.366"/>
	<rect x="211.227" y="334.713" fill="#BCBCBB" width="14.477" height="3.366"/>
	<rect x="236.844" y="334.713" fill="#BCBCBB" width="14.479" height="3.366"/>
	<rect x="262.463" y="334.713" fill="#BCBCBB" width="14.477" height="3.366"/>
	<rect x="288.08" y="334.713" fill="#BCBCBB" width="14.479" height="3.366"/>
	<rect x="313.699" y="334.713" fill="#BCBCBB" width="14.477" height="3.366"/>
	<rect x="887.629" y="334.713" fill="#BCBCBB" width="4.146" height="3.366"/>
	<rect x="902.914" y="334.713" fill="#BCBCBB" width="14.479" height="3.366"/>
	<rect x="928.533" y="334.713" fill="#BCBCBB" width="14.479" height="3.366"/>
	<rect x="979.77" y="334.713" fill="#BCBCBB" width="14.479" height="3.366"/>
	<rect x="1005.389" y="334.713" fill="#BCBCBB" width="14.477" height="3.366"/>
	<rect x="1031.006" y="334.713" fill="#BCBCBB" width="14.479" height="3.366"/>
	<rect x="1056.625" y="334.713" fill="#BCBCBB" width="14.477" height="3.366"/>
	<rect x="1082.242" y="334.713" fill="#BCBCBB" width="14.479" height="3.366"/>
	<rect x="954.152" y="334.713" fill="#BCBCBB" width="14.477" height="3.366"/>
	<rect x="31.898" y="334.713" fill="#BCBCBB" width="14.479" height="3.366"/>
	<rect x="57.518" y="334.713" fill="#BCBCBB" width="14.477" height="3.366"/>
	<rect x="83.135" y="334.713" fill="#BCBCBB" width="14.479" height="3.366"/>
	<rect x="108.754" y="334.713" fill="#BCBCBB" width="14.477" height="3.366"/>
	<rect x="134.371" y="334.713" fill="#BCBCBB" width="14.479" height="3.366"/>
	<rect x="159.99" y="334.713" fill="#BCBCBB" width="14.477" height="3.366"/>
	<rect x="493.025" y="369.449" fill="#BCBCBB" width="14.479" height="3.366"/>
	<rect x="518.643" y="369.449" fill="#BCBCBB" width="14.479" height="3.366"/>
	<rect x="544.262" y="369.449" fill="#BCBCBB" width="14.479" height="3.366"/>
	<rect x="569.879" y="369.449" fill="#BCBCBB" width="14.479" height="3.366"/>
	<rect x="595.498" y="369.449" fill="#BCBCBB" width="14.479" height="3.366"/>
	<polygon fill="#BCBCBB" points="621.115,369.449 629.604,370.206 630.285,372.815 621.115,372.815 	"/>
	<rect x="339.316" y="369.449" fill="#BCBCBB" width="14.479" height="3.366"/>
	<rect x="364.934" y="369.449" fill="#BCBCBB" width="14.479" height="3.366"/>
	<rect x="390.553" y="369.449" fill="#BCBCBB" width="14.479" height="3.366"/>
	<rect x="416.17" y="369.449" fill="#BCBCBB" width="14.479" height="3.366"/>
	<rect x="441.789" y="369.449" fill="#BCBCBB" width="14.479" height="3.366"/>
	<rect x="467.408" y="369.449" fill="#BCBCBB" width="14.477" height="3.366"/>
	<rect x="185.607" y="369.449" fill="#BCBCBB" width="14.479" height="3.366"/>
	<rect x="211.227" y="369.449" fill="#BCBCBB" width="14.477" height="3.366"/>
	<rect x="236.844" y="369.449" fill="#BCBCBB" width="14.479" height="3.366"/>
	<rect x="262.463" y="369.449" fill="#BCBCBB" width="14.477" height="3.366"/>
	<rect x="288.08" y="369.449" fill="#BCBCBB" width="14.479" height="3.366"/>
	<rect x="313.699" y="369.449" fill="#BCBCBB" width="14.477" height="3.366"/>
	<polygon fill="#BCBCBB" points="886.619,369.706 891.775,369.449 891.775,372.815 885.885,372.815 	"/>
	<rect x="902.914" y="369.449" fill="#BCBCBB" width="14.479" height="3.366"/>
	<rect x="928.533" y="369.449" fill="#BCBCBB" width="14.479" height="3.366"/>
	<rect x="979.77" y="369.449" fill="#BCBCBB" width="14.479" height="3.366"/>
	<rect x="1005.389" y="369.449" fill="#BCBCBB" width="14.477" height="3.366"/>
	<rect x="1031.006" y="369.449" fill="#BCBCBB" width="14.479" height="3.366"/>
	<rect x="1056.625" y="369.449" fill="#BCBCBB" width="14.477" height="3.366"/>
	<rect x="1082.242" y="369.449" fill="#BCBCBB" width="14.479" height="3.366"/>
	<rect x="1082.242" y="369.449" fill="#BCBCBB" width="14.479" height="3.366"/>
	<polygon fill="#BCBCBB" points="1106.744,369.2 1113.592,367.523 1120.229,363.929 1121.455,367.063 1115.045,370.57 
		1107.971,372.336 	"/>
	<polygon fill="#BCBCBB" points="1106.744,338.645 1113.592,340.321 1120.229,343.916 1121.455,340.781 1115.045,337.274 
		1107.971,335.509 	"/>
	<polygon fill="#BCBCBB" points="1122.062,347.468 1122.699,354.487 1121.455,361.932 1124.818,362.074 1126.053,354.872 
		1125.426,347.608 	"/>
	<rect x="954.152" y="369.449" fill="#BCBCBB" width="14.477" height="3.366"/>
	<rect x="31.898" y="369.449" fill="#BCBCBB" width="14.479" height="3.366"/>
	<rect x="57.518" y="369.449" fill="#BCBCBB" width="14.477" height="3.366"/>
	<rect x="83.135" y="369.449" fill="#BCBCBB" width="14.479" height="3.366"/>
	<rect x="108.754" y="369.449" fill="#BCBCBB" width="14.477" height="3.366"/>
	<rect x="134.371" y="369.449" fill="#BCBCBB" width="14.479" height="3.366"/>
	<rect x="159.99" y="369.449" fill="#BCBCBB" width="14.477" height="3.366"/>
	<polygon fill="#BCBCBB" points="21.256,339.532 14.408,341.209 7.771,344.804 6.545,341.669 12.955,338.162 20.029,336.396 	"/>
	<polygon fill="#BCBCBB" points="21.256,370.088 14.408,368.411 7.771,364.816 6.545,367.951 12.955,371.458 20.029,373.224 	"/>
	<polygon fill="#BCBCBB" points="5.938,361.265 5.301,354.245 6.545,346.801 3.182,346.658 1.947,353.86 2.574,361.124 	"/>
</g>
</svg>
